REM DIRINDEX 1\3,1\2\4,1\2\5,1\2\6
REM DIRNAME folder01,folder02,folder03,folder04,folder05,folder06
TITLE ""
FILE "152.mp3" MP3
  TRACK 01 AUDIO
    TITLE "4:cjc137_6728"
    INDEX 01 00:00:00
  TRACK 02 AUDIO
    TITLE "0:"
    INDEX 01 00:01:22
  TRACK 03 AUDIO
    TITLE "6:cjc137_6729"
    INDEX 01 00:01:28
  TRACK 04 AUDIO
    TITLE "0:"
    INDEX 01 00:03:04
  TRACK 05 AUDIO
    TITLE "5:cjc137_6730"
    INDEX 01 00:03:10
  TRACK 06 AUDIO
    TITLE "0:"
    INDEX 01 00:04:29
  TRACK 07 AUDIO
    TITLE "4:cjc137_6731"
    INDEX 01 00:05:40
  TRACK 08 AUDIO
    TITLE "0:"
    INDEX 01 00:06:63
  TRACK 09 AUDIO
    TITLE "6:cjc137_6732"
    INDEX 01 00:06:73
  TRACK 10 AUDIO
    TITLE "0:"
    INDEX 01 00:08:66
  TRACK 11 AUDIO
    TITLE "5:cjc137_6733"
    INDEX 01 00:08:73
  TRACK 12 AUDIO
    TITLE "0:"
    INDEX 01 00:10:23
  TRACK 13 AUDIO
    TITLE "4:cjc137_6734"
    INDEX 01 00:11:33
  TRACK 14 AUDIO
    TITLE "0:"
    INDEX 01 00:12:54
  TRACK 15 AUDIO
    TITLE "6:cjc137_6735"
    INDEX 01 00:12:61
  TRACK 16 AUDIO
    TITLE "0:"
    INDEX 01 00:13:63
  TRACK 17 AUDIO
    TITLE "5:cjc137_6736"
    INDEX 01 00:13:67
  TRACK 18 AUDIO
    TITLE "0:"
    INDEX 01 00:15:13
  TRACK 19 AUDIO
    TITLE "4:cjc137_6737"
    INDEX 01 00:16:20
  TRACK 20 AUDIO
    TITLE "0:"
    INDEX 01 00:17:29
  TRACK 21 AUDIO
    TITLE "6:cjc137_6738"
    INDEX 01 00:17:41
  TRACK 22 AUDIO
    TITLE "0:"
    INDEX 01 00:19:09
  TRACK 23 AUDIO
    TITLE "5:cjc137_6739"
    INDEX 01 00:19:13
  TRACK 24 AUDIO
    TITLE "0:"
    INDEX 01 00:20:20
  TRACK 25 AUDIO
    TITLE "4:cjc137_6740"
    INDEX 01 00:21:35
  TRACK 26 AUDIO
    TITLE "0:"
    INDEX 01 00:22:40
  TRACK 27 AUDIO
    TITLE "6:cjc137_6741"
    INDEX 01 00:22:44
  TRACK 28 AUDIO
    TITLE "0:"
    INDEX 01 00:24:06
  TRACK 29 AUDIO
    TITLE "5:cjc137_6742"
    INDEX 01 00:24:12
  TRACK 30 AUDIO
    TITLE "0:"
    INDEX 01 00:25:15
  TRACK 31 AUDIO
    TITLE "4:cjc137_6743"
    INDEX 01 00:26:22
  TRACK 32 AUDIO
    TITLE "0:"
    INDEX 01 00:27:61
  TRACK 33 AUDIO
    TITLE "6:cjc137_6744"
    INDEX 01 00:27:71
  TRACK 34 AUDIO
    TITLE "0:"
    INDEX 01 00:29:64
  TRACK 35 AUDIO
    TITLE "5:cjc137_6745"
    INDEX 01 00:29:68
  TRACK 36 AUDIO
    TITLE "0:"
    INDEX 01 00:31:33
  TRACK 37 AUDIO
    TITLE "4:cjc137_6746"
    INDEX 01 00:32:45
  TRACK 38 AUDIO
    TITLE "0:"
    INDEX 01 00:33:62
  TRACK 39 AUDIO
    TITLE "6:cjc137_6747"
    INDEX 01 00:33:71
  TRACK 40 AUDIO
    TITLE "0:"
    INDEX 01 00:35:35
  TRACK 41 AUDIO
    TITLE "5:cjc137_6748"
    INDEX 01 00:35:43
  TRACK 42 AUDIO
    TITLE "0:"
    INDEX 01 00:36:62
  TRACK 43 AUDIO
    TITLE "4:cjc137_6749"
    INDEX 01 00:37:69
  TRACK 44 AUDIO
    TITLE "0:"
    INDEX 01 00:39:17
  TRACK 45 AUDIO
    TITLE "6:cjc137_6750"
    INDEX 01 00:39:27
  TRACK 46 AUDIO
    TITLE "0:"
    INDEX 01 00:40:60
  TRACK 47 AUDIO
    TITLE "5:cjc137_6751"
    INDEX 01 00:40:66
  TRACK 48 AUDIO
    TITLE "0:"
    INDEX 01 00:42:12
  TRACK 49 AUDIO
    TITLE "4:cjc137_6752"
    INDEX 01 00:43:25
  TRACK 50 AUDIO
    TITLE "0:"
    INDEX 01 00:44:46
  TRACK 51 AUDIO
    TITLE "6:cjc137_6753"
    INDEX 01 00:44:56
  TRACK 52 AUDIO
    TITLE "0:"
    INDEX 01 00:47:01
  TRACK 53 AUDIO
    TITLE "5:cjc137_6754"
    INDEX 01 00:47:11
  TRACK 54 AUDIO
    TITLE "0:"
    INDEX 01 00:48:32
  TRACK 55 AUDIO
    TITLE "4:cjc137_6755"
    INDEX 01 00:49:45
  TRACK 56 AUDIO
    TITLE "0:"
    INDEX 01 00:51:05
  TRACK 57 AUDIO
    TITLE "6:cjc137_6756"
    INDEX 01 00:51:11
  TRACK 58 AUDIO
    TITLE "0:"
    INDEX 01 00:53:21
  TRACK 59 AUDIO
    TITLE "5:cjc137_6757"
    INDEX 01 00:53:37
  TRACK 60 AUDIO
    TITLE "0:"
    INDEX 01 00:54:72
  TRACK 61 AUDIO
    TITLE "4:cjc137_6758"
    INDEX 01 00:56:08
  TRACK 62 AUDIO
    TITLE "0:"
    INDEX 01 00:57:46
  TRACK 63 AUDIO
    TITLE "6:cjc137_6759"
    INDEX 01 00:57:52
  TRACK 64 AUDIO
    TITLE "0:"
    INDEX 01 00:59:22
  TRACK 65 AUDIO
    TITLE "5:cjc137_6760"
    INDEX 01 00:59:28
  TRACK 66 AUDIO
    TITLE "0:"
    INDEX 01 01:00:66
  TRACK 67 AUDIO
    TITLE "4:cjc137_6761"
    INDEX 01 01:01:74
  TRACK 68 AUDIO
    TITLE "0:"
    INDEX 01 01:03:31
  TRACK 69 AUDIO
    TITLE "6:cjc137_6762"
    INDEX 01 01:03:43
  TRACK 70 AUDIO
    TITLE "0:"
    INDEX 01 01:04:54
  TRACK 71 AUDIO
    TITLE "5:cjc137_6763"
    INDEX 01 01:04:62
  TRACK 72 AUDIO
    TITLE "0:"
    INDEX 01 01:06:18
  TRACK 73 AUDIO
    TITLE "4:cjc137_6764"
    INDEX 01 01:07:31
  TRACK 74 AUDIO
    TITLE "0:"
    INDEX 01 01:08:70
  TRACK 75 AUDIO
    TITLE "6:cjc137_6765"
    INDEX 01 01:09:01
  TRACK 76 AUDIO
    TITLE "0:"
    INDEX 01 01:10:53
  TRACK 77 AUDIO
    TITLE "5:cjc137_6766"
    INDEX 01 01:10:55
  TRACK 78 AUDIO
    TITLE "0:"
    INDEX 01 01:12:19
  TRACK 79 AUDIO
    TITLE "4:cjc137_6767"
    INDEX 01 01:13:28
  TRACK 80 AUDIO
    TITLE "0:"
    INDEX 01 01:14:59
  TRACK 81 AUDIO
    TITLE "6:cjc137_6768"
    INDEX 01 01:14:68
  TRACK 82 AUDIO
    TITLE "0:"
    INDEX 01 01:16:07
  TRACK 83 AUDIO
    TITLE "5:cjc137_6769"
    INDEX 01 01:16:12
  TRACK 84 AUDIO
    TITLE "0:"
    INDEX 01 01:17:45
  TRACK 85 AUDIO
    TITLE "4:cjc137_6770"
    INDEX 01 01:18:53
  TRACK 86 AUDIO
    TITLE "0:"
    INDEX 01 01:20:06
  TRACK 87 AUDIO
    TITLE "6:cjc137_6771"
    INDEX 01 01:20:16
  TRACK 88 AUDIO
    TITLE "0:"
    INDEX 01 01:22:21
  TRACK 89 AUDIO
    TITLE "5:cjc137_6772"
    INDEX 01 01:22:25
  TRACK 90 AUDIO
    TITLE "0:"
    INDEX 01 01:23:54
  TRACK 91 AUDIO
    TITLE "4:cjc137_6773"
    INDEX 01 01:24:65
  TRACK 92 AUDIO
    TITLE "0:"
    INDEX 01 01:26:11
  TRACK 93 AUDIO
    TITLE "6:cjc137_6774"
    INDEX 01 01:26:21
  TRACK 94 AUDIO
    TITLE "0:"
    INDEX 01 01:28:55
  TRACK 95 AUDIO
    TITLE "5:cjc137_6775"
    INDEX 01 01:28:65
  TRACK 96 AUDIO
    TITLE "0:"
    INDEX 01 01:30:11
  TRACK 97 AUDIO
    TITLE "4:cjc137_6776"
    INDEX 01 01:31:22
  TRACK 98 AUDIO
    TITLE "0:"
    INDEX 01 01:32:49
  TRACK 99 AUDIO
    TITLE "6:cjc137_6777"
    INDEX 01 01:32:72
  TRACK 100 AUDIO
    TITLE "0:"
    INDEX 01 01:34:38
  TRACK 101 AUDIO
    TITLE "5:cjc137_6778"
    INDEX 01 01:34:44
  TRACK 102 AUDIO
    TITLE "0:"
    INDEX 01 01:35:71
  TRACK 103 AUDIO
    TITLE "4:cjc137_6779"
    INDEX 01 01:37:24
  TRACK 104 AUDIO
    TITLE "0:"
    INDEX 01 01:39:08
  TRACK 105 AUDIO
    TITLE "6:cjc137_6780"
    INDEX 01 01:39:17
  TRACK 106 AUDIO
    TITLE "0:"
    INDEX 01 01:41:42
  TRACK 107 AUDIO
    TITLE "5:cjc137_6781"
    INDEX 01 01:41:52
  TRACK 108 AUDIO
    TITLE "0:"
    INDEX 01 01:43:37
  TRACK 109 AUDIO
    TITLE "4:cjc137_6782"
    INDEX 01 01:44:50
  TRACK 110 AUDIO
    TITLE "0:"
    INDEX 01 01:46:12
  TRACK 111 AUDIO
    TITLE "6:cjc137_6783"
    INDEX 01 01:46:21
  TRACK 112 AUDIO
    TITLE "0:"
    INDEX 01 01:47:29
  TRACK 113 AUDIO
    TITLE "5:cjc137_6784"
    INDEX 01 01:47:37
  TRACK 114 AUDIO
    TITLE "0:"
    INDEX 01 01:49:00
  TRACK 115 AUDIO
    TITLE "4:cjc137_6785"
    INDEX 01 01:50:09
  TRACK 116 AUDIO
    TITLE "0:"
    INDEX 01 01:51:32
  TRACK 117 AUDIO
    TITLE "6:cjc137_6786"
    INDEX 01 01:51:36
  TRACK 118 AUDIO
    TITLE "0:"
    INDEX 01 01:52:71
  TRACK 119 AUDIO
    TITLE "5:cjc137_6787"
    INDEX 01 01:53:00
  TRACK 120 AUDIO
    TITLE "0:"
    INDEX 01 01:54:23
  TRACK 121 AUDIO
    TITLE "4:cjc137_6788"
    INDEX 01 01:55:30
  TRACK 122 AUDIO
    TITLE "0:"
    INDEX 01 01:56:49
  TRACK 123 AUDIO
    TITLE "6:cjc137_6789"
    INDEX 01 01:56:63
  TRACK 124 AUDIO
    TITLE "0:"
    INDEX 01 01:58:62
  TRACK 125 AUDIO
    TITLE "5:cjc137_6790"
    INDEX 01 01:59:01
  TRACK 126 AUDIO
    TITLE "0:"
    INDEX 01 02:00:16
  TRACK 127 AUDIO
    TITLE "4:cjc137_6791"
    INDEX 01 02:01:33
  TRACK 128 AUDIO
    TITLE "0:"
    INDEX 01 02:02:60
  TRACK 129 AUDIO
    TITLE "6:cjc137_6792"
    INDEX 01 02:02:69
  TRACK 130 AUDIO
    TITLE "0:"
    INDEX 01 02:04:15
  TRACK 131 AUDIO
    TITLE "5:cjc137_6793"
    INDEX 01 02:04:25
  TRACK 132 AUDIO
    TITLE "0:"
    INDEX 01 02:05:54
